<svg width="27" height="26" viewBox="0 0 27 26" fill="none" xmlns="http://www.w3.org/2000/svg">
<path d="M25.03 1H20.4267L18.8247 16.9692C18.7581 17.4095 18.5351 17.8107 18.1967 18.0991C17.8583 18.3875 17.4274 18.5435 16.9834 18.5385H5.38293C4.9814 18.5595 4.58404 18.4481 4.25155 18.2215C3.91906 17.9948 3.66971 17.6652 3.5416 17.2831L1.09262 9.89846C1.00131 9.62083 0.977065 9.32542 1.02188 9.03656C1.0667 8.74769 1.1793 8.47363 1.3504 8.23692C1.52866 7.98525 1.76701 7.78241 2.04365 7.64696C2.32029 7.5115 2.62639 7.44775 2.93395 7.46154H19.7822" stroke="#FFD279" stroke-width="2" stroke-linecap="round" stroke-linejoin="round"/>
<path d="M5.69606 25C6.20453 25 6.61673 24.5867 6.61673 24.0769C6.61673 23.5671 6.20453 23.1539 5.69606 23.1539C5.18759 23.1539 4.77539 23.5671 4.77539 24.0769C4.77539 24.5867 5.18759 25 5.69606 25Z" stroke="#FFD279" stroke-width="2" stroke-linecap="round" stroke-linejoin="round"/>
<path d="M17.6646 25C18.173 25 18.5852 24.5867 18.5852 24.0769C18.5852 23.5671 18.173 23.1539 17.6646 23.1539C17.1561 23.1539 16.7439 23.5671 16.7439 24.0769C16.7439 24.5867 17.1561 25 17.6646 25Z" stroke="#FFD279" stroke-width="2" stroke-linecap="round" stroke-linejoin="round"/>
</svg>
