<svg width="26" height="22" viewBox="0 0 26 22" fill="none" xmlns="http://www.w3.org/2000/svg">
<path d="M22.8182 13.684H3.18182C1.97683 13.684 1 14.454 1 15.4038V18.8435C1 19.7934 1.97683 20.5634 3.18182 20.5634H22.8182C24.0232 20.5634 25 19.7934 25 18.8435V15.4038C25 14.454 24.0232 13.684 22.8182 13.684Z" stroke="#FFD279" stroke-width="2" stroke-linecap="round" stroke-linejoin="round"/>
<path d="M22.8182 1H3.18182C1.97683 1 1 1.77001 1 2.71986V6.15957C1 7.10943 1.97683 7.87943 3.18182 7.87943H22.8182C24.0232 7.87943 25 7.10943 25 6.15957V2.71986C25 1.77001 24.0232 1 22.8182 1Z" stroke="#FFD279" stroke-width="2" stroke-linecap="round" stroke-linejoin="round"/>
</svg>
